<?xml version="1.0" standalone="no"?>
<!DOCTYPE svg PUBLIC "-//W3C//DTD SVG 20010904//EN"
 "http://www.w3.org/TR/2001/REC-SVG-20010904/DTD/svg10.dtd">
<svg version="1.0" xmlns="http://www.w3.org/2000/svg"
 width="300.000000pt" height="184.000000pt" viewBox="0 0 300.000000 184.000000"
 preserveAspectRatio="xMidYMid meet">
<metadata>
Created by potrace 1.10, written by Peter Selinger 2001-2011
</metadata>
<g transform="translate(0.000000,184.000000) scale(0.100000,-0.100000)"
fill="#22e530" stroke="none">
<path d="M1550 1410 c106 -5 201 -16 265 -30 404 -89 735 -345 936 -723 61
-115 64 -107 5 11 -130 258 -379 499 -644 623 -186 87 -333 120 -557 124
l-170 3 165 -8z"/>
<path d="M1250 1394 c-117 -25 -233 -65 -345 -119 -120 -58 -265 -148 -265
-165 0 -6 -4 -9 -8 -6 -5 3 -31 -15 -58 -41 -27 -25 -42 -40 -33 -34 9 6 19 8
22 5 3 -4 30 15 59 41 102 92 251 181 393 234 33 13 70 28 82 33 12 6 33 11
47 11 14 0 26 4 26 9 0 6 11 7 26 4 15 -4 23 -3 20 3 -3 5 26 14 66 21 100 15
108 18 68 18 -19 0 -64 -6 -100 -14z m-645 -324 c-16 -16 -34 -30 -39 -30 -10
1 53 59 63 60 3 0 -8 -13 -24 -30z"/>
<path d="M1395 1364 c-404 -38 -769 -242 -1003 -559 -24 -33 -49 -63 -56 -67
-6 -4 -6 -8 -1 -8 7 0 7 -3 0 -8 -15 -11 -32 -40 -69 -117 -77 -159 -129 -351
-142 -517 -11 -139 11 -106 25 39 63 617 540 1115 1156 1208 143 21 440 17
403 -6 -7 -5 4 -6 26 -2 25 4 37 3 33 -4 -4 -6 3 -8 16 -6 61 11 327 -95 472
-189 351 -227 586 -622 621 -1045 4 -46 11 -83 16 -83 6 0 7 20 4 48 -3 26 -8
74 -12 107 -20 198 -118 450 -242 625 -166 232 -437 436 -692 518 -149 49
-412 80 -555 66z"/>
<path d="M1385 1284 c-134 -13 -312 -64 -439 -124 -128 -61 -230 -133 -341
-241 -56 -54 -105 -96 -110 -91 -5 4 -5 1 -1 -6 8 -14 -12 -45 -24 -37 -4 3
-7 -3 -6 -13 0 -9 -5 -16 -12 -14 -8 1 -11 -2 -7 -8 3 -5 1 -10 -5 -10 -6 0
-9 -4 -6 -8 3 -5 -4 -16 -14 -25 -45 -38 -143 -275 -180 -433 -11 -46 -23
-126 -26 -178 -6 -85 -5 -96 10 -96 13 0 16 13 16 83 0 277 132 575 353 799
183 186 403 307 664 365 100 22 385 25 488 4 161 -32 335 -104 480 -200 102
-67 281 -248 349 -354 125 -191 194 -391 212 -609 5 -64 10 -88 20 -88 10 0
14 14 14 46 0 27 -4 43 -10 39 -6 -4 -10 11 -10 37 0 62 -43 240 -80 333 -71
181 -159 315 -295 450 -99 100 -178 159 -300 227 -191 105 -338 145 -570 152
-71 2 -148 2 -170 0z"/>
<path d="M1005 1230 c-33 -15 -57 -29 -54 -29 6 -1 132 49 138 55 14 13 -33
-1 -84 -26z"/>
<path d="M1345 1230 c-448 -66 -818 -386 -964 -830 -38 -116 -57 -209 -67
-317 -6 -73 -5 -83 10 -83 13 0 16 11 16 63 0 128 37 289 100 432 67 154 239
354 398 463 141 96 241 141 412 182 122 30 381 34 497 7 159 -37 320 -107 442
-194 85 -61 225 -201 284 -284 117 -165 196 -384 213 -586 5 -60 11 -83 20
-83 19 0 18 117 -1 237 -82 504 -463 890 -974 987 -87 17 -293 20 -386 6z
m405 -24 c362 -71 677 -314 840 -650 54 -110 96 -253 105 -350 l5 -61 -15 69
c-100 478 -463 849 -924 948 -127 26 -349 29 -474 4 -248 -48 -449 -157 -637
-346 -52 -52 -84 -79 -70 -60 40 59 202 212 275 261 170 113 330 170 570 203
54 8 248 -4 325 -18z"/>
<path d="M910 1190 c-8 -6 -42 -25 -75 -44 -33 -19 -82 -55 -110 -81 l-50 -46
67 50 c37 27 95 66 130 86 35 21 65 39 67 41 8 8 -14 3 -29 -6z"/>
<path d="M1347 1125 c-115 -20 -209 -51 -332 -110 -379 -182 -622 -532 -640
-919 l-4 -101 14 115 c27 204 79 351 178 502 57 87 161 208 179 208 6 0 -7
-19 -28 -42 -53 -57 -98 -118 -92 -123 2 -2 24 23 48 56 80 110 259 255 375
304 64 27 193 64 248 71 37 5 46 9 32 14 -11 4 34 6 100 5 116 -2 117 -2 25 4
l-95 6 100 8 c226 19 478 -49 675 -183 82 -56 199 -167 261 -249 105 -139 192
-351 203 -494 3 -34 2 -51 0 -37 -73 349 -251 605 -546 784 -130 79 -306 141
-423 150 -44 3 -46 3 -15 -5 27 -6 20 -7 -27 -4 -170 12 -395 -34 -558 -115
-124 -61 -206 -122 -315 -237 -47 -48 -89 -88 -94 -88 -17 0 -105 -180 -140
-285 -51 -155 -82 -360 -53 -360 11 0 15 23 20 100 8 122 28 208 77 321 114
268 346 482 628 583 142 51 206 61 372 60 135 -1 168 -4 255 -27 212 -57 403
-179 535 -344 35 -43 68 -78 73 -78 6 0 12 -6 15 -14 3 -9 0 -11 -8 -6 -7 4
-5 -5 4 -24 9 -17 19 -31 22 -31 2 0 0 9 -6 19 -17 34 -11 37 10 6 22 -33 26
-50 10 -40 -6 4 -3 -10 7 -29 9 -20 18 -34 21 -32 2 2 -2 14 -8 26 -6 12 -9
24 -7 27 3 3 14 -12 25 -34 62 -120 105 -272 117 -405 6 -60 11 -78 23 -78 13
0 14 14 8 95 -21 307 -124 534 -333 736 -251 243 -596 351 -936 294z"/>
<path d="M1322 1020 c-474 -103 -825 -488 -848 -930 -6 -114 10 -93 19 25 15
194 110 410 248 561 58 64 77 73 26 13 -64 -77 -140 -205 -176 -298 -36 -94
-71 -258 -71 -335 0 -85 16 -67 24 27 16 185 52 298 141 437 130 204 332 347
595 420 114 32 335 35 450 6 102 -26 219 -77 301 -131 64 -43 239 -215 239
-236 0 -6 6 -7 13 -3 6 4 9 4 5 -1 -4 -4 5 -28 19 -54 28 -49 54 -82 33 -43
-21 42 -3 34 23 -10 63 -109 112 -262 123 -388 5 -62 10 -80 22 -80 13 0 14
14 9 99 -29 442 -321 795 -752 913 -109 30 -324 34 -443 8z m458 -29 c110 -32
264 -111 357 -186 152 -120 287 -327 333 -509 25 -98 25 -157 1 -66 -68 251
-213 454 -426 595 -181 120 -313 164 -550 185 -94 8 -91 8 55 5 122 -2 171 -7
230 -24z m-185 -5 c6 -3 -34 -5 -88 -5 -272 -2 -514 -105 -706 -300 -70 -70
-79 -77 -51 -37 41 57 149 160 214 205 100 69 293 141 378 141 16 0 27 3 24 8
-4 7 209 -4 229 -12z"/>
<path d="M620 975 c-24 -25 -42 -45 -39 -45 3 0 25 20 49 45 24 25 42 45 39
45 -3 0 -25 -20 -49 -45z"/>
<path d="M420 914 c-204 -237 -325 -532 -335 -819 l-4 -100 9 100 c28 322 160
630 363 844 27 28 45 51 40 51 -4 0 -37 -34 -73 -76z"/>
<path d="M1340 926 c-188 -42 -386 -149 -511 -276 -156 -159 -245 -349 -256
-552 -7 -121 11 -135 22 -16 14 162 74 326 166 459 44 62 66 82 30 27 -35 -54
-102 -189 -123 -248 -20 -59 -48 -221 -48 -282 0 -26 5 -38 14 -38 10 0 15 24
21 92 13 173 59 303 149 423 24 33 42 63 40 66 -7 12 97 119 161 164 104 75
251 135 331 135 16 0 34 4 40 10 13 13 186 31 237 24 218 -29 447 -148 568
-296 135 -165 197 -317 206 -506 4 -85 9 -112 19 -112 21 0 18 137 -6 243 -74
337 -351 611 -691 682 -84 18 -290 18 -369 1z"/>
<path d="M1545 891 c2 -5 -37 -11 -88 -14 -220 -15 -431 -109 -567 -253 l-45
-47 63 54 c200 173 471 261 705 230 184 -24 327 -94 457 -221 164 -161 240
-326 265 -572 8 -81 25 -90 25 -14 0 71 -22 183 -54 274 -14 40 -21 70 -16 67
6 -3 7 1 4 9 -3 9 -11 13 -17 9 -6 -3 -7 -1 -3 5 12 19 -62 121 -155 214 -126
126 -248 200 -399 241 -62 17 -183 29 -175 18z"/>
<path d="M2554 817 c16 -20 30 -37 33 -37 7 0 -36 58 -49 66 -7 4 1 -9 16 -29z"/>
<path d="M1440 830 c-180 -22 -382 -113 -510 -232 -153 -142 -252 -354 -249
-532 l2 -71 7 80 c18 189 83 337 215 483 26 28 51 52 57 52 5 0 -11 -24 -36
-52 -25 -29 -46 -57 -46 -63 0 -5 12 6 27 25 108 142 277 244 445 269 35 4 52
10 38 11 -55 5 35 18 136 19 270 3 529 -145 673 -385 22 -38 41 -64 41 -58 0
18 -96 160 -142 210 -89 96 -227 183 -348 217 -50 15 -210 39 -235 36 -5 -1
-39 -5 -75 -9z"/>
<path d="M1540 790 c44 -7 43 -7 -20 -9 -144 -3 -302 -45 -409 -108 -35 -21
-102 -73 -147 -116 -46 -43 -86 -77 -90 -75 -12 5 -82 -132 -108 -212 -43
-130 -61 -270 -36 -270 6 0 10 12 10 28 0 15 6 69 14 119 54 363 437 651 820
618 202 -17 391 -121 520 -285 16 -19 25 -29 20 -21 -5 9 -3 12 5 7 6 -4 10
-15 9 -24 -2 -9 3 -17 11 -17 19 0 85 -124 112 -208 17 -55 37 -161 39 -209 0
-5 5 -8 10 -8 6 0 9 30 9 73 -1 39 -4 59 -6 42 -4 -24 -9 -12 -28 59 -42 163
-141 322 -261 422 -137 114 -356 207 -479 202 l-40 -1 45 -7z"/>
<path d="M1372 724 c-146 -32 -313 -125 -410 -229 -112 -119 -179 -268 -190
-417 -4 -68 -3 -78 12 -78 13 0 16 11 16 55 0 105 45 246 109 339 43 62 51 53
11 -11 -43 -68 -77 -177 -85 -264 -3 -41 -8 -84 -11 -96 -3 -15 0 -23 10 -23
10 0 16 19 20 68 14 145 48 248 107 323 16 20 29 42 29 49 0 6 4 8 10 5 5 -3
7 0 4 8 -7 18 118 134 181 169 111 59 249 77 390 49 173 -34 260 -78 377 -194
109 -109 156 -209 179 -381 15 -115 35 -131 26 -21 -9 101 -66 273 -113 336
-60 82 -172 177 -259 219 -82 41 -177 70 -227 70 -15 0 -30 5 -34 11 -10 17
108 1 196 -27 273 -86 469 -345 470 -621 0 -49 3 -63 15 -63 20 0 20 86 -1
188 -65 321 -357 555 -687 551 -45 -1 -110 -7 -145 -15z"/>
<path d="M2677 615 c20 -41 39 -73 41 -71 4 5 -66 146 -73 146 -3 0 12 -34 32
-75z"/>
<path d="M1261 630 c-68 -25 -166 -88 -211 -137 l-35 -37 42 37 c61 53 117 86
208 124 87 35 84 44 -4 13z"/>
<path d="M1371 620 c-71 -19 -171 -67 -235 -113 -16 -12 -62 -54 -101 -92
-102 -100 -147 -202 -158 -357 -3 -32 -1 -58 3 -58 10 0 20 37 20 75 0 78 59
230 120 313 38 53 52 50 16 -3 -61 -90 -99 -200 -110 -322 -5 -58 -4 -63 14
-63 18 0 20 7 20 63 0 187 104 341 295 435 162 81 346 83 497 6 56 -28 171
-137 211 -199 30 -46 67 -188 67 -257 0 -36 4 -48 15 -48 8 0 15 8 15 18 0 22
-26 157 -39 201 -6 19 -8 38 -5 43 16 26 -109 168 -209 237 -98 67 -130 76
-262 74 -66 0 -142 -6 -170 -12 -80 -19 -189 -77 -251 -133 -48 -44 -54 -47
-35 -20 79 113 277 201 451 202 204 0 403 -130 496 -325 41 -85 54 -148 47
-226 -5 -55 -4 -59 16 -59 18 0 21 6 21 48 0 76 -27 181 -66 262 -48 98 -169
221 -265 267 -130 64 -278 79 -418 43z"/>
<path d="M399 559 c-16 -34 -29 -63 -27 -65 2 -2 18 26 36 61 17 36 30 65 27
65 -3 0 -19 -27 -36 -61z"/>
<path d="M1398 514 c-147 -35 -307 -155 -368 -274 -26 -51 -50 -150 -49 -201
l1 -44 8 50 c17 116 46 186 112 273 48 62 71 70 30 10 -58 -85 -92 -173 -107
-281 -6 -38 -4 -47 7 -47 11 0 17 18 21 70 8 98 42 167 121 246 148 148 368
186 545 94 88 -46 179 -171 201 -276 30 -145 30 -145 25 -73 -2 36 -13 88 -23
115 -33 84 -34 90 -8 49 30 -46 66 -153 66 -196 0 -19 5 -29 15 -29 11 0 15
12 14 48 0 33 -3 41 -8 27 -7 -17 -9 -15 -16 15 -4 19 -20 64 -36 99 -76 169
-257 292 -453 309 -70 6 -70 6 -31 15 81 17 237 -19 318 -74 98 -67 180 -183
204 -289 l13 -55 -5 50 c-3 29 -20 80 -41 122 -101 201 -330 302 -556 247z
m117 -34 c-11 -5 -36 -9 -56 -9 -91 -2 -201 -53 -286 -134 -59 -55 -65 -57
-28 -7 13 18 22 38 18 44 -3 6 -3 8 2 4 4 -4 31 11 61 34 68 51 149 77 239 77
48 0 64 -3 50 -9z"/>
<path d="M2351 445 c0 -5 6 -21 14 -35 8 -14 14 -20 14 -15 0 6 -6 21 -14 35
-8 14 -14 21 -14 15z"/>
<path d="M326 384 c-9 -26 -16 -55 -15 -63 0 -9 9 11 19 44 23 70 19 87 -4 19z"/>
<path d="M1412 410 c-101 -27 -153 -52 -202 -96 -78 -71 -122 -154 -135 -257
-6 -47 -5 -57 7 -57 11 0 17 16 21 55 6 64 47 158 84 198 15 15 30 27 34 27 3
0 23 15 43 34 42 38 127 66 197 65 l44 -1 -60 -13 c-88 -19 -131 -40 -194 -93
-74 -62 -78 -67 -100 -137 -29 -94 -34 -135 -18 -135 10 0 16 18 20 59 10 114
81 204 207 265 58 28 75 31 155 31 80 0 95 -3 137 -27 53 -32 118 -102 144
-156 9 -20 22 -67 28 -104 7 -43 15 -68 23 -68 14 0 11 46 -8 121 -5 20 -7 44
-3 52 3 10 -18 40 -61 86 -73 77 -153 124 -238 140 -61 11 -71 21 -21 21 50 0
127 -21 180 -48 92 -47 179 -167 189 -258 l6 -49 -22 53 c-27 69 -33 63 -9 -8
11 -30 19 -67 20 -82 0 -18 5 -28 15 -28 18 0 20 42 5 120 -15 77 -48 138
-110 201 -96 98 -230 129 -378 89z"/>
<path d="M2380 379 c0 -3 9 -32 19 -65 27 -83 41 -166 41 -246 0 -39 4 -68 10
-68 22 0 -1 189 -37 310 -14 47 -33 86 -33 69z"/>
<path d="M2505 330 c21 -106 36 -196 44 -260 6 -59 9 -66 10 -30 1 56 -23 210
-44 270 -8 25 -13 34 -10 20z"/>
<path d="M1446 319 c-82 -20 -165 -69 -205 -119 -41 -52 -55 -86 -65 -157 -5
-32 -3 -43 7 -43 7 0 17 24 24 61 16 82 49 129 124 175 49 29 75 38 118 41
l56 3 -62 -18 c-76 -23 -167 -84 -187 -126 -8 -17 -18 -55 -22 -84 -6 -44 -4
-52 10 -52 13 0 16 10 16 48 0 133 194 253 323 199 79 -34 131 -104 143 -196
4 -28 10 -51 15 -51 12 0 11 57 0 98 -5 17 -8 32 -6 32 9 0 34 -57 40 -93 9
-44 25 -49 25 -7 0 17 -3 30 -7 30 -5 0 -21 25 -37 55 -45 87 -138 161 -224
180 -19 4 -30 11 -25 16 13 13 119 -16 164 -45 22 -15 54 -47 72 -72 17 -25
33 -40 35 -35 9 26 -77 118 -138 148 -41 20 -138 26 -194 12z"/>
<path d="M280 178 c-6 -46 -10 -105 -7 -133 l3 -50 2 58 c1 32 7 90 13 128 6
39 9 73 6 75 -3 3 -10 -32 -17 -78z"/>
<path d="M1445 216 c-66 -32 -97 -80 -110 -168 -7 -43 -5 -48 12 -48 16 0 18
6 15 35 -4 30 1 40 31 69 44 41 109 61 155 47 43 -13 109 -77 123 -119 16 -48
34 -34 33 25 -2 62 -25 104 -77 140 -47 33 -135 42 -182 19z m133 -22 c49 -20
89 -60 103 -101 16 -48 6 -50 -24 -5 -14 22 -46 51 -71 66 -41 24 -49 25 -93
16 -26 -6 -63 -20 -81 -30 -32 -19 -32 -19 -22 0 11 21 36 38 85 57 41 16 60
15 103 -3z"/>
<path d="M2226 190 c4 -19 10 -71 15 -115 l8 -80 -4 90 c-2 50 -8 101 -14 115
-10 22 -10 21 -5 -10z"/>
<path d="M1326 130 c-26 -31 -51 -102 -43 -123 3 -7 8 6 12 28 9 48 21 72 48
103 11 12 18 22 15 22 -4 0 -18 -14 -32 -30z"/>
<path d="M1450 99 c-51 -34 -63 -51 -57 -82 4 -20 4 -19 6 4 0 14 11 34 22 45
l22 19 -6 -43 c-5 -40 -4 -42 20 -42 21 0 23 2 13 15 -6 8 -9 19 -5 25 8 13
65 13 65 -1 0 -5 4 -7 10 -4 5 3 15 -3 22 -15 15 -24 34 -26 42 -4 12 32 5 56
-23 85 -37 37 -72 37 -131 -2z m115 -14 c23 -22 34 -55 19 -55 -3 0 -21 12
-40 27 -26 20 -38 23 -46 15 -7 -7 -19 -12 -27 -12 -11 0 -6 8 13 25 36 31 51
31 81 0z"/>
<path d="M2653 40 c0 -25 2 -35 4 -22 2 12 2 32 0 45 -2 12 -4 2 -4 -23z"/>
</g>
</svg>
